<mxfile host="65bd71144e">
    <diagram id="Xnh4wSkNKo7zt2GgQq9Q" name="Page-1">
        <mxGraphModel dx="1174" dy="965" grid="1" gridSize="10" guides="1" tooltips="1" connect="1" arrows="1" fold="1" page="1" pageScale="1" pageWidth="850" pageHeight="1100" math="0" shadow="0">
            <root>
                <mxCell id="0"/>
                <mxCell id="1" parent="0"/>
                <mxCell id="72" value="" style="rounded=0;whiteSpace=wrap;html=1;fillColor=#f5f5f5;strokeColor=#666666;fontColor=#333333;" parent="1" vertex="1">
                    <mxGeometry x="560" y="350" width="535" height="460" as="geometry"/>
                </mxCell>
                <mxCell id="76" value="" style="group" parent="72" vertex="1" connectable="0">
                    <mxGeometry x="30" y="205" width="61" height="65" as="geometry"/>
                </mxCell>
                <mxCell id="70" value="ingress" style="text;html=1;strokeColor=none;fillColor=none;align=center;verticalAlign=middle;whiteSpace=wrap;rounded=0;" parent="76" vertex="1">
                    <mxGeometry y="55" width="60" height="10" as="geometry"/>
                </mxCell>
                <mxCell id="9" value="" style="shape=hexagon;perimeter=hexagonPerimeter2;whiteSpace=wrap;html=1;fixedSize=1;size=10;" parent="76" vertex="1">
                    <mxGeometry x="1" width="60" height="50" as="geometry"/>
                </mxCell>
                <mxCell id="6" value="" style="shape=flexArrow;endArrow=classic;html=1;endWidth=4.341085271317829;endSize=1.9916279069767442;width=3.333333333333333;fillColor=default;" parent="76" edge="1">
                    <mxGeometry width="50" height="50" relative="1" as="geometry">
                        <mxPoint x="15" y="32" as="sourcePoint"/>
                        <mxPoint x="47" y="19" as="targetPoint"/>
                        <Array as="points">
                            <mxPoint x="23" y="32"/>
                            <mxPoint x="34" y="19"/>
                        </Array>
                    </mxGeometry>
                </mxCell>
                <mxCell id="8" value="" style="shape=flexArrow;endArrow=classic;html=1;endWidth=4.341085271317829;endSize=1.9916279069767442;width=3.333333333333333;fillColor=default;" parent="76" edge="1">
                    <mxGeometry width="50" height="50" relative="1" as="geometry">
                        <mxPoint x="15" y="19" as="sourcePoint"/>
                        <mxPoint x="47" y="31" as="targetPoint"/>
                        <Array as="points">
                            <mxPoint x="23" y="19"/>
                            <mxPoint x="33" y="31"/>
                        </Array>
                    </mxGeometry>
                </mxCell>
                <mxCell id="13" style="edgeStyle=none;html=1;exitX=1;exitY=0.25;exitDx=0;exitDy=0;startArrow=none;startFill=0;fillColor=default;" parent="1" source="2" edge="1">
                    <mxGeometry relative="1" as="geometry">
                        <mxPoint x="505" y="580" as="targetPoint"/>
                    </mxGeometry>
                </mxCell>
                <mxCell id="14" style="edgeStyle=none;html=1;exitX=1;exitY=0.5;exitDx=0;exitDy=0;startArrow=none;startFill=0;fillColor=default;" parent="1" source="2" edge="1">
                    <mxGeometry relative="1" as="geometry">
                        <mxPoint x="505" y="580" as="targetPoint"/>
                    </mxGeometry>
                </mxCell>
                <mxCell id="15" style="edgeStyle=none;html=1;exitX=1;exitY=0.75;exitDx=0;exitDy=0;startArrow=none;startFill=0;fillColor=default;" parent="1" source="2" edge="1">
                    <mxGeometry relative="1" as="geometry">
                        <mxPoint x="505" y="580" as="targetPoint"/>
                    </mxGeometry>
                </mxCell>
                <mxCell id="17" style="edgeStyle=none;html=1;exitX=0.5;exitY=0;exitDx=0;exitDy=0;entryX=0.5;entryY=1;entryDx=0;entryDy=0;startArrow=none;startFill=0;fillColor=default;" parent="1" source="2" target="16" edge="1">
                    <mxGeometry relative="1" as="geometry">
                        <Array as="points">
                            <mxPoint x="360" y="310"/>
                            <mxPoint x="460" y="310"/>
                        </Array>
                    </mxGeometry>
                </mxCell>
                <mxCell id="2" value="API Gateway" style="rounded=1;whiteSpace=wrap;html=1;" parent="1" vertex="1">
                    <mxGeometry x="300" y="370" width="120" height="420" as="geometry"/>
                </mxCell>
                <mxCell id="12" value="" style="endArrow=classic;html=1;fillColor=default;entryX=0;entryY=0.5;entryDx=0;entryDy=0;" parent="1" target="9" edge="1">
                    <mxGeometry width="50" height="50" relative="1" as="geometry">
                        <mxPoint x="505" y="580" as="sourcePoint"/>
                        <mxPoint x="381" y="645" as="targetPoint"/>
                    </mxGeometry>
                </mxCell>
                <mxCell id="16" value="Auth Provider" style="rounded=1;whiteSpace=wrap;html=1;" parent="1" vertex="1">
                    <mxGeometry x="400" y="220" width="120" height="60" as="geometry"/>
                </mxCell>
                <mxCell id="36" value="" style="group" parent="1" vertex="1" connectable="0">
                    <mxGeometry x="760" y="385" width="85" height="70" as="geometry"/>
                </mxCell>
                <mxCell id="35" value="catalog-service" style="text;html=1;strokeColor=none;fillColor=none;align=center;verticalAlign=middle;whiteSpace=wrap;rounded=0;container=0;" parent="36" vertex="1">
                    <mxGeometry y="60" width="85" height="10" as="geometry"/>
                </mxCell>
                <mxCell id="19" value="" style="shape=hexagon;perimeter=hexagonPerimeter2;whiteSpace=wrap;html=1;fixedSize=1;size=10;verticalAlign=top;labelPosition=center;verticalLabelPosition=bottom;align=center;container=0;" parent="36" vertex="1">
                    <mxGeometry x="7.5" width="70" height="55" as="geometry"/>
                </mxCell>
                <mxCell id="18" value="" style="rounded=0;whiteSpace=wrap;html=1;container=0;" parent="36" vertex="1">
                    <mxGeometry x="17.5" y="35" width="10" height="10" as="geometry"/>
                </mxCell>
                <mxCell id="20" value="" style="rounded=0;whiteSpace=wrap;html=1;container=0;" parent="36" vertex="1">
                    <mxGeometry x="37.5" y="35" width="10" height="10" as="geometry"/>
                </mxCell>
                <mxCell id="21" value="" style="rounded=0;whiteSpace=wrap;html=1;container=0;" parent="36" vertex="1">
                    <mxGeometry x="57.5" y="35" width="10" height="10" as="geometry"/>
                </mxCell>
                <mxCell id="27" style="edgeStyle=none;html=1;exitX=0.5;exitY=0;exitDx=0;exitDy=0;startArrow=none;startFill=0;endArrow=none;endFill=0;fillColor=default;entryX=0.5;entryY=0;entryDx=0;entryDy=0;" parent="36" source="18" target="21" edge="1">
                    <mxGeometry relative="1" as="geometry">
                        <mxPoint x="59.5" y="25" as="targetPoint"/>
                        <Array as="points">
                            <mxPoint x="22.5" y="28"/>
                            <mxPoint x="22.5" y="25"/>
                            <mxPoint x="62.5" y="25"/>
                            <mxPoint x="62.5" y="28"/>
                        </Array>
                    </mxGeometry>
                </mxCell>
                <mxCell id="28" style="edgeStyle=none;html=1;exitX=0.5;exitY=1;exitDx=0;exitDy=0;entryX=0.5;entryY=0;entryDx=0;entryDy=0;startArrow=none;startFill=0;endArrow=none;endFill=0;fillColor=default;" parent="36" source="22" target="20" edge="1">
                    <mxGeometry relative="1" as="geometry"/>
                </mxCell>
                <mxCell id="22" value="" style="rounded=0;whiteSpace=wrap;html=1;container=0;" parent="36" vertex="1">
                    <mxGeometry x="32.5" y="5" width="20" height="10" as="geometry"/>
                </mxCell>
                <mxCell id="46" value="" style="group" parent="1" vertex="1" connectable="0">
                    <mxGeometry x="742.5" y="495" width="120" height="70" as="geometry"/>
                </mxCell>
                <mxCell id="38" value="shopping-cart-service" style="text;html=1;strokeColor=none;fillColor=none;align=center;verticalAlign=middle;whiteSpace=wrap;rounded=0;container=0;" parent="46" vertex="1">
                    <mxGeometry y="60" width="120" height="10" as="geometry"/>
                </mxCell>
                <mxCell id="39" value="" style="shape=hexagon;perimeter=hexagonPerimeter2;whiteSpace=wrap;html=1;fixedSize=1;size=10;verticalAlign=top;labelPosition=center;verticalLabelPosition=bottom;align=center;container=0;" parent="46" vertex="1">
                    <mxGeometry x="25" width="70" height="55" as="geometry"/>
                </mxCell>
                <mxCell id="40" value="" style="rounded=0;whiteSpace=wrap;html=1;container=0;" parent="46" vertex="1">
                    <mxGeometry x="35" y="35" width="10" height="10" as="geometry"/>
                </mxCell>
                <mxCell id="41" value="" style="rounded=0;whiteSpace=wrap;html=1;container=0;" parent="46" vertex="1">
                    <mxGeometry x="55" y="35" width="10" height="10" as="geometry"/>
                </mxCell>
                <mxCell id="42" value="" style="rounded=0;whiteSpace=wrap;html=1;container=0;" parent="46" vertex="1">
                    <mxGeometry x="75" y="35" width="10" height="10" as="geometry"/>
                </mxCell>
                <mxCell id="43" style="edgeStyle=none;html=1;exitX=0.5;exitY=0;exitDx=0;exitDy=0;startArrow=none;startFill=0;endArrow=none;endFill=0;fillColor=default;entryX=0.5;entryY=0;entryDx=0;entryDy=0;" parent="46" source="40" target="42" edge="1">
                    <mxGeometry relative="1" as="geometry">
                        <mxPoint x="77" y="25" as="targetPoint"/>
                        <Array as="points">
                            <mxPoint x="40" y="28"/>
                            <mxPoint x="40" y="25"/>
                            <mxPoint x="80" y="25"/>
                            <mxPoint x="80" y="28"/>
                        </Array>
                    </mxGeometry>
                </mxCell>
                <mxCell id="44" style="edgeStyle=none;html=1;exitX=0.5;exitY=1;exitDx=0;exitDy=0;entryX=0.5;entryY=0;entryDx=0;entryDy=0;startArrow=none;startFill=0;endArrow=none;endFill=0;fillColor=default;" parent="46" source="45" target="41" edge="1">
                    <mxGeometry relative="1" as="geometry"/>
                </mxCell>
                <mxCell id="45" value="" style="rounded=0;whiteSpace=wrap;html=1;container=0;" parent="46" vertex="1">
                    <mxGeometry x="50" y="5" width="20" height="10" as="geometry"/>
                </mxCell>
                <mxCell id="47" value="" style="group" parent="1" vertex="1" connectable="0">
                    <mxGeometry x="742.5" y="605" width="120" height="70" as="geometry"/>
                </mxCell>
                <mxCell id="48" value="order-service" style="text;html=1;strokeColor=none;fillColor=none;align=center;verticalAlign=middle;whiteSpace=wrap;rounded=0;container=0;" parent="47" vertex="1">
                    <mxGeometry y="60" width="120" height="10" as="geometry"/>
                </mxCell>
                <mxCell id="49" value="" style="shape=hexagon;perimeter=hexagonPerimeter2;whiteSpace=wrap;html=1;fixedSize=1;size=10;verticalAlign=top;labelPosition=center;verticalLabelPosition=bottom;align=center;container=0;" parent="47" vertex="1">
                    <mxGeometry x="25" width="70" height="55" as="geometry"/>
                </mxCell>
                <mxCell id="50" value="" style="rounded=0;whiteSpace=wrap;html=1;container=0;" parent="47" vertex="1">
                    <mxGeometry x="35" y="35" width="10" height="10" as="geometry"/>
                </mxCell>
                <mxCell id="51" value="" style="rounded=0;whiteSpace=wrap;html=1;container=0;" parent="47" vertex="1">
                    <mxGeometry x="55" y="35" width="10" height="10" as="geometry"/>
                </mxCell>
                <mxCell id="52" value="" style="rounded=0;whiteSpace=wrap;html=1;container=0;" parent="47" vertex="1">
                    <mxGeometry x="75" y="35" width="10" height="10" as="geometry"/>
                </mxCell>
                <mxCell id="53" style="edgeStyle=none;html=1;exitX=0.5;exitY=0;exitDx=0;exitDy=0;startArrow=none;startFill=0;endArrow=none;endFill=0;fillColor=default;entryX=0.5;entryY=0;entryDx=0;entryDy=0;" parent="47" source="50" target="52" edge="1">
                    <mxGeometry relative="1" as="geometry">
                        <mxPoint x="77" y="25" as="targetPoint"/>
                        <Array as="points">
                            <mxPoint x="40" y="28"/>
                            <mxPoint x="40" y="25"/>
                            <mxPoint x="80" y="25"/>
                            <mxPoint x="80" y="28"/>
                        </Array>
                    </mxGeometry>
                </mxCell>
                <mxCell id="54" style="edgeStyle=none;html=1;exitX=0.5;exitY=1;exitDx=0;exitDy=0;entryX=0.5;entryY=0;entryDx=0;entryDy=0;startArrow=none;startFill=0;endArrow=none;endFill=0;fillColor=default;" parent="47" source="55" target="51" edge="1">
                    <mxGeometry relative="1" as="geometry"/>
                </mxCell>
                <mxCell id="55" value="" style="rounded=0;whiteSpace=wrap;html=1;container=0;" parent="47" vertex="1">
                    <mxGeometry x="50" y="5" width="20" height="10" as="geometry"/>
                </mxCell>
                <mxCell id="56" value="" style="group" parent="1" vertex="1" connectable="0">
                    <mxGeometry x="740" y="715" width="120" height="70" as="geometry"/>
                </mxCell>
                <mxCell id="57" value="inventory-service" style="text;html=1;strokeColor=none;fillColor=none;align=center;verticalAlign=middle;whiteSpace=wrap;rounded=0;container=0;" parent="56" vertex="1">
                    <mxGeometry y="60" width="120" height="10" as="geometry"/>
                </mxCell>
                <mxCell id="58" value="" style="shape=hexagon;perimeter=hexagonPerimeter2;whiteSpace=wrap;html=1;fixedSize=1;size=10;verticalAlign=top;labelPosition=center;verticalLabelPosition=bottom;align=center;container=0;" parent="56" vertex="1">
                    <mxGeometry x="25" width="70" height="55" as="geometry"/>
                </mxCell>
                <mxCell id="59" value="" style="rounded=0;whiteSpace=wrap;html=1;container=0;" parent="56" vertex="1">
                    <mxGeometry x="35" y="35" width="10" height="10" as="geometry"/>
                </mxCell>
                <mxCell id="60" value="" style="rounded=0;whiteSpace=wrap;html=1;container=0;" parent="56" vertex="1">
                    <mxGeometry x="55" y="35" width="10" height="10" as="geometry"/>
                </mxCell>
                <mxCell id="61" value="" style="rounded=0;whiteSpace=wrap;html=1;container=0;" parent="56" vertex="1">
                    <mxGeometry x="75" y="35" width="10" height="10" as="geometry"/>
                </mxCell>
                <mxCell id="62" style="edgeStyle=none;html=1;exitX=0.5;exitY=0;exitDx=0;exitDy=0;startArrow=none;startFill=0;endArrow=none;endFill=0;fillColor=default;entryX=0.5;entryY=0;entryDx=0;entryDy=0;" parent="56" source="59" target="61" edge="1">
                    <mxGeometry relative="1" as="geometry">
                        <mxPoint x="77" y="25" as="targetPoint"/>
                        <Array as="points">
                            <mxPoint x="40" y="28"/>
                            <mxPoint x="40" y="25"/>
                            <mxPoint x="80" y="25"/>
                            <mxPoint x="80" y="28"/>
                        </Array>
                    </mxGeometry>
                </mxCell>
                <mxCell id="63" style="edgeStyle=none;html=1;exitX=0.5;exitY=1;exitDx=0;exitDy=0;entryX=0.5;entryY=0;entryDx=0;entryDy=0;startArrow=none;startFill=0;endArrow=none;endFill=0;fillColor=default;" parent="56" source="64" target="60" edge="1">
                    <mxGeometry relative="1" as="geometry"/>
                </mxCell>
                <mxCell id="64" value="" style="rounded=0;whiteSpace=wrap;html=1;container=0;" parent="56" vertex="1">
                    <mxGeometry x="50" y="5" width="20" height="10" as="geometry"/>
                </mxCell>
                <mxCell id="65" style="edgeStyle=none;html=1;exitX=1;exitY=0.5;exitDx=0;exitDy=0;startArrow=none;startFill=0;endArrow=none;endFill=0;fillColor=default;" parent="1" source="9" edge="1">
                    <mxGeometry relative="1" as="geometry">
                        <mxPoint x="685" y="580" as="targetPoint"/>
                    </mxGeometry>
                </mxCell>
                <mxCell id="66" value="" style="endArrow=classic;html=1;fillColor=default;entryX=0;entryY=0.5;entryDx=0;entryDy=0;" parent="1" target="19" edge="1">
                    <mxGeometry width="50" height="50" relative="1" as="geometry">
                        <mxPoint x="685" y="580" as="sourcePoint"/>
                        <mxPoint x="670" y="565" as="targetPoint"/>
                        <Array as="points">
                            <mxPoint x="754" y="415"/>
                        </Array>
                    </mxGeometry>
                </mxCell>
                <mxCell id="67" value="" style="endArrow=classic;html=1;fillColor=default;entryX=0;entryY=0.5;entryDx=0;entryDy=0;" parent="1" target="39" edge="1">
                    <mxGeometry width="50" height="50" relative="1" as="geometry">
                        <mxPoint x="685" y="580" as="sourcePoint"/>
                        <mxPoint x="670" y="565" as="targetPoint"/>
                        <Array as="points">
                            <mxPoint x="751" y="525"/>
                        </Array>
                    </mxGeometry>
                </mxCell>
                <mxCell id="68" value="" style="endArrow=classic;html=1;fillColor=default;entryX=0;entryY=0.5;entryDx=0;entryDy=0;" parent="1" target="49" edge="1">
                    <mxGeometry width="50" height="50" relative="1" as="geometry">
                        <mxPoint x="685" y="580" as="sourcePoint"/>
                        <mxPoint x="670" y="565" as="targetPoint"/>
                        <Array as="points">
                            <mxPoint x="751" y="632"/>
                        </Array>
                    </mxGeometry>
                </mxCell>
                <mxCell id="69" value="" style="endArrow=classic;html=1;fillColor=default;entryX=0;entryY=0.5;entryDx=0;entryDy=0;" parent="1" target="58" edge="1">
                    <mxGeometry width="50" height="50" relative="1" as="geometry">
                        <mxPoint x="685" y="580" as="sourcePoint"/>
                        <mxPoint x="670" y="565" as="targetPoint"/>
                        <Array as="points">
                            <mxPoint x="749" y="740"/>
                        </Array>
                    </mxGeometry>
                </mxCell>
                <mxCell id="73" value="&lt;font style=&quot;font-size: 14px;&quot;&gt;K8s Cluster&lt;/font&gt;" style="text;html=1;strokeColor=none;fillColor=none;align=center;verticalAlign=middle;whiteSpace=wrap;rounded=0;" parent="1" vertex="1">
                    <mxGeometry x="795" y="820" width="80" height="20" as="geometry"/>
                </mxCell>
                <mxCell id="232" value="" style="group" parent="1" vertex="1" connectable="0">
                    <mxGeometry x="895" y="369.75" width="160" height="85.5" as="geometry"/>
                </mxCell>
                <mxCell id="233" value="" style="rounded=0;whiteSpace=wrap;html=1;fontSize=14;fillColor=none;" parent="232" vertex="1">
                    <mxGeometry width="160" height="85.5" as="geometry"/>
                </mxCell>
                <mxCell id="234" value="catalog service replicas" style="text;html=1;strokeColor=none;fillColor=none;align=center;verticalAlign=middle;whiteSpace=wrap;rounded=0;fontSize=14;container=0;" parent="232" vertex="1">
                    <mxGeometry y="66.25" width="160" height="13" as="geometry"/>
                </mxCell>
                <mxCell id="235" value="" style="endArrow=none;html=1;fontSize=14;fillColor=default;" parent="232" edge="1">
                    <mxGeometry width="50" height="50" relative="1" as="geometry">
                        <mxPoint x="87.46666666666667" y="20" as="sourcePoint"/>
                        <mxPoint x="98.13333333333333" y="15" as="targetPoint"/>
                    </mxGeometry>
                </mxCell>
                <mxCell id="236" value="" style="endArrow=none;html=1;fontSize=14;fillColor=default;" parent="232" edge="1">
                    <mxGeometry width="50" height="50" relative="1" as="geometry">
                        <mxPoint x="87.46666666666667" y="20" as="sourcePoint"/>
                        <mxPoint x="76.8" y="15" as="targetPoint"/>
                    </mxGeometry>
                </mxCell>
                <mxCell id="237" value="" style="endArrow=none;html=1;fontSize=14;fillColor=default;" parent="232" edge="1">
                    <mxGeometry width="50" height="50" relative="1" as="geometry">
                        <mxPoint x="87.46666666666667" y="10" as="sourcePoint"/>
                        <mxPoint x="76.8" y="15" as="targetPoint"/>
                    </mxGeometry>
                </mxCell>
                <mxCell id="238" value="" style="endArrow=none;html=1;fontSize=14;fillColor=default;" parent="232" edge="1">
                    <mxGeometry width="50" height="50" relative="1" as="geometry">
                        <mxPoint x="98.13333333333333" y="15" as="sourcePoint"/>
                        <mxPoint x="87.46666666666667" y="10" as="targetPoint"/>
                    </mxGeometry>
                </mxCell>
                <mxCell id="239" value="" style="endArrow=none;html=1;fontSize=14;fillColor=default;" parent="232" edge="1">
                    <mxGeometry width="50" height="50" relative="1" as="geometry">
                        <mxPoint x="76.8" y="30" as="sourcePoint"/>
                        <mxPoint x="76.8" y="15" as="targetPoint"/>
                    </mxGeometry>
                </mxCell>
                <mxCell id="240" value="" style="endArrow=none;html=1;fontSize=14;fillColor=default;" parent="232" edge="1">
                    <mxGeometry width="50" height="50" relative="1" as="geometry">
                        <mxPoint x="98.13333333333333" y="30" as="sourcePoint"/>
                        <mxPoint x="98.13333333333333" y="15" as="targetPoint"/>
                    </mxGeometry>
                </mxCell>
                <mxCell id="241" value="" style="endArrow=none;html=1;fontSize=14;fillColor=default;" parent="232" edge="1">
                    <mxGeometry width="50" height="50" relative="1" as="geometry">
                        <mxPoint x="87.46666666666667" y="35" as="sourcePoint"/>
                        <mxPoint x="76.8" y="30" as="targetPoint"/>
                    </mxGeometry>
                </mxCell>
                <mxCell id="242" value="" style="endArrow=none;html=1;fontSize=14;fillColor=default;" parent="232" edge="1">
                    <mxGeometry width="50" height="50" relative="1" as="geometry">
                        <mxPoint x="87.46666666666667" y="35" as="sourcePoint"/>
                        <mxPoint x="98.13333333333333" y="30" as="targetPoint"/>
                    </mxGeometry>
                </mxCell>
                <mxCell id="243" value="" style="endArrow=none;html=1;fontSize=14;fillColor=default;" parent="232" edge="1">
                    <mxGeometry width="50" height="50" relative="1" as="geometry">
                        <mxPoint x="87.46666666666667" y="35" as="sourcePoint"/>
                        <mxPoint x="87.46666666666667" y="20" as="targetPoint"/>
                    </mxGeometry>
                </mxCell>
                <mxCell id="244" value="" style="endArrow=none;html=1;fontSize=14;fillColor=default;" parent="232" edge="1">
                    <mxGeometry width="50" height="50" relative="1" as="geometry">
                        <mxPoint x="64" y="35" as="sourcePoint"/>
                        <mxPoint x="74.66666666666667" y="30" as="targetPoint"/>
                    </mxGeometry>
                </mxCell>
                <mxCell id="245" value="" style="endArrow=none;html=1;fontSize=14;fillColor=default;" parent="232" edge="1">
                    <mxGeometry width="50" height="50" relative="1" as="geometry">
                        <mxPoint x="64" y="35" as="sourcePoint"/>
                        <mxPoint x="53.333333333333336" y="30" as="targetPoint"/>
                    </mxGeometry>
                </mxCell>
                <mxCell id="246" value="" style="endArrow=none;html=1;fontSize=14;fillColor=default;" parent="232" edge="1">
                    <mxGeometry width="50" height="50" relative="1" as="geometry">
                        <mxPoint x="64" y="25" as="sourcePoint"/>
                        <mxPoint x="53.333333333333336" y="30" as="targetPoint"/>
                    </mxGeometry>
                </mxCell>
                <mxCell id="247" value="" style="endArrow=none;html=1;fontSize=14;fillColor=default;" parent="232" edge="1">
                    <mxGeometry width="50" height="50" relative="1" as="geometry">
                        <mxPoint x="74.66666666666667" y="30" as="sourcePoint"/>
                        <mxPoint x="64" y="25" as="targetPoint"/>
                    </mxGeometry>
                </mxCell>
                <mxCell id="248" value="" style="endArrow=none;html=1;fontSize=14;fillColor=default;" parent="232" edge="1">
                    <mxGeometry width="50" height="50" relative="1" as="geometry">
                        <mxPoint x="53.333333333333336" y="45" as="sourcePoint"/>
                        <mxPoint x="53.333333333333336" y="30" as="targetPoint"/>
                    </mxGeometry>
                </mxCell>
                <mxCell id="249" value="" style="endArrow=none;html=1;fontSize=14;fillColor=default;" parent="232" edge="1">
                    <mxGeometry width="50" height="50" relative="1" as="geometry">
                        <mxPoint x="74.66666666666667" y="45" as="sourcePoint"/>
                        <mxPoint x="74.66666666666667" y="30" as="targetPoint"/>
                    </mxGeometry>
                </mxCell>
                <mxCell id="250" value="" style="endArrow=none;html=1;fontSize=14;fillColor=default;" parent="232" edge="1">
                    <mxGeometry width="50" height="50" relative="1" as="geometry">
                        <mxPoint x="64" y="50" as="sourcePoint"/>
                        <mxPoint x="53.333333333333336" y="45" as="targetPoint"/>
                    </mxGeometry>
                </mxCell>
                <mxCell id="251" value="" style="endArrow=none;html=1;fontSize=14;fillColor=default;" parent="232" edge="1">
                    <mxGeometry width="50" height="50" relative="1" as="geometry">
                        <mxPoint x="64" y="50" as="sourcePoint"/>
                        <mxPoint x="74.66666666666667" y="45" as="targetPoint"/>
                    </mxGeometry>
                </mxCell>
                <mxCell id="252" value="" style="endArrow=none;html=1;fontSize=14;fillColor=default;" parent="232" edge="1">
                    <mxGeometry width="50" height="50" relative="1" as="geometry">
                        <mxPoint x="64" y="50" as="sourcePoint"/>
                        <mxPoint x="64" y="35" as="targetPoint"/>
                    </mxGeometry>
                </mxCell>
                <mxCell id="253" value="" style="endArrow=none;html=1;fontSize=14;fillColor=default;" parent="232" edge="1">
                    <mxGeometry width="50" height="50" relative="1" as="geometry">
                        <mxPoint x="87.46666666666667" y="51" as="sourcePoint"/>
                        <mxPoint x="98.13333333333333" y="46" as="targetPoint"/>
                    </mxGeometry>
                </mxCell>
                <mxCell id="254" value="" style="endArrow=none;html=1;fontSize=14;fillColor=default;" parent="232" edge="1">
                    <mxGeometry width="50" height="50" relative="1" as="geometry">
                        <mxPoint x="87.46666666666667" y="51" as="sourcePoint"/>
                        <mxPoint x="76.8" y="46" as="targetPoint"/>
                    </mxGeometry>
                </mxCell>
                <mxCell id="255" value="" style="endArrow=none;html=1;fontSize=14;fillColor=default;" parent="232" edge="1">
                    <mxGeometry width="50" height="50" relative="1" as="geometry">
                        <mxPoint x="87.46666666666667" y="41" as="sourcePoint"/>
                        <mxPoint x="76.8" y="46" as="targetPoint"/>
                    </mxGeometry>
                </mxCell>
                <mxCell id="256" value="" style="endArrow=none;html=1;fontSize=14;fillColor=default;" parent="232" edge="1">
                    <mxGeometry width="50" height="50" relative="1" as="geometry">
                        <mxPoint x="98.13333333333333" y="46" as="sourcePoint"/>
                        <mxPoint x="87.46666666666667" y="41" as="targetPoint"/>
                    </mxGeometry>
                </mxCell>
                <mxCell id="257" value="" style="endArrow=none;html=1;fontSize=14;fillColor=default;" parent="232" edge="1">
                    <mxGeometry width="50" height="50" relative="1" as="geometry">
                        <mxPoint x="76.8" y="61" as="sourcePoint"/>
                        <mxPoint x="76.8" y="46" as="targetPoint"/>
                    </mxGeometry>
                </mxCell>
                <mxCell id="258" value="" style="endArrow=none;html=1;fontSize=14;fillColor=default;" parent="232" edge="1">
                    <mxGeometry width="50" height="50" relative="1" as="geometry">
                        <mxPoint x="98.13333333333333" y="61" as="sourcePoint"/>
                        <mxPoint x="98.13333333333333" y="46" as="targetPoint"/>
                    </mxGeometry>
                </mxCell>
                <mxCell id="259" value="" style="endArrow=none;html=1;fontSize=14;fillColor=default;" parent="232" edge="1">
                    <mxGeometry width="50" height="50" relative="1" as="geometry">
                        <mxPoint x="87.46666666666667" y="66" as="sourcePoint"/>
                        <mxPoint x="76.8" y="61" as="targetPoint"/>
                    </mxGeometry>
                </mxCell>
                <mxCell id="260" value="" style="endArrow=none;html=1;fontSize=14;fillColor=default;" parent="232" edge="1">
                    <mxGeometry width="50" height="50" relative="1" as="geometry">
                        <mxPoint x="87.46666666666667" y="66" as="sourcePoint"/>
                        <mxPoint x="98.13333333333333" y="61" as="targetPoint"/>
                    </mxGeometry>
                </mxCell>
                <mxCell id="261" value="" style="endArrow=none;html=1;fontSize=14;fillColor=default;" parent="232" edge="1">
                    <mxGeometry width="50" height="50" relative="1" as="geometry">
                        <mxPoint x="87.46666666666667" y="66" as="sourcePoint"/>
                        <mxPoint x="87.46666666666667" y="51" as="targetPoint"/>
                    </mxGeometry>
                </mxCell>
                <mxCell id="262" style="edgeStyle=none;html=1;exitX=1;exitY=0.5;exitDx=0;exitDy=0;entryX=0;entryY=0.5;entryDx=0;entryDy=0;fontSize=14;startArrow=none;startFill=0;endArrow=classic;endFill=1;fillColor=default;" parent="1" source="19" target="233" edge="1">
                    <mxGeometry relative="1" as="geometry"/>
                </mxCell>
                <mxCell id="263" value="" style="group" parent="1" vertex="1" connectable="0">
                    <mxGeometry x="895" y="480" width="160" height="85.5" as="geometry"/>
                </mxCell>
                <mxCell id="264" value="" style="rounded=0;whiteSpace=wrap;html=1;fontSize=14;fillColor=none;" parent="263" vertex="1">
                    <mxGeometry width="160" height="85.5" as="geometry"/>
                </mxCell>
                <mxCell id="265" value="shopping cart replicas" style="text;html=1;strokeColor=none;fillColor=none;align=center;verticalAlign=middle;whiteSpace=wrap;rounded=0;fontSize=14;container=0;" parent="263" vertex="1">
                    <mxGeometry y="66.25" width="160" height="13" as="geometry"/>
                </mxCell>
                <mxCell id="266" value="" style="endArrow=none;html=1;fontSize=14;fillColor=default;" parent="263" edge="1">
                    <mxGeometry width="50" height="50" relative="1" as="geometry">
                        <mxPoint x="87.46666666666667" y="20" as="sourcePoint"/>
                        <mxPoint x="98.13333333333333" y="15" as="targetPoint"/>
                    </mxGeometry>
                </mxCell>
                <mxCell id="267" value="" style="endArrow=none;html=1;fontSize=14;fillColor=default;" parent="263" edge="1">
                    <mxGeometry width="50" height="50" relative="1" as="geometry">
                        <mxPoint x="87.46666666666667" y="20" as="sourcePoint"/>
                        <mxPoint x="76.8" y="15" as="targetPoint"/>
                    </mxGeometry>
                </mxCell>
                <mxCell id="268" value="" style="endArrow=none;html=1;fontSize=14;fillColor=default;" parent="263" edge="1">
                    <mxGeometry width="50" height="50" relative="1" as="geometry">
                        <mxPoint x="87.46666666666667" y="10" as="sourcePoint"/>
                        <mxPoint x="76.8" y="15" as="targetPoint"/>
                    </mxGeometry>
                </mxCell>
                <mxCell id="269" value="" style="endArrow=none;html=1;fontSize=14;fillColor=default;" parent="263" edge="1">
                    <mxGeometry width="50" height="50" relative="1" as="geometry">
                        <mxPoint x="98.13333333333333" y="15" as="sourcePoint"/>
                        <mxPoint x="87.46666666666667" y="10" as="targetPoint"/>
                    </mxGeometry>
                </mxCell>
                <mxCell id="270" value="" style="endArrow=none;html=1;fontSize=14;fillColor=default;" parent="263" edge="1">
                    <mxGeometry width="50" height="50" relative="1" as="geometry">
                        <mxPoint x="76.8" y="30" as="sourcePoint"/>
                        <mxPoint x="76.8" y="15" as="targetPoint"/>
                    </mxGeometry>
                </mxCell>
                <mxCell id="271" value="" style="endArrow=none;html=1;fontSize=14;fillColor=default;" parent="263" edge="1">
                    <mxGeometry width="50" height="50" relative="1" as="geometry">
                        <mxPoint x="98.13333333333333" y="30" as="sourcePoint"/>
                        <mxPoint x="98.13333333333333" y="15" as="targetPoint"/>
                    </mxGeometry>
                </mxCell>
                <mxCell id="272" value="" style="endArrow=none;html=1;fontSize=14;fillColor=default;" parent="263" edge="1">
                    <mxGeometry width="50" height="50" relative="1" as="geometry">
                        <mxPoint x="87.46666666666667" y="35" as="sourcePoint"/>
                        <mxPoint x="76.8" y="30" as="targetPoint"/>
                    </mxGeometry>
                </mxCell>
                <mxCell id="273" value="" style="endArrow=none;html=1;fontSize=14;fillColor=default;" parent="263" edge="1">
                    <mxGeometry width="50" height="50" relative="1" as="geometry">
                        <mxPoint x="87.46666666666667" y="35" as="sourcePoint"/>
                        <mxPoint x="98.13333333333333" y="30" as="targetPoint"/>
                    </mxGeometry>
                </mxCell>
                <mxCell id="274" value="" style="endArrow=none;html=1;fontSize=14;fillColor=default;" parent="263" edge="1">
                    <mxGeometry width="50" height="50" relative="1" as="geometry">
                        <mxPoint x="87.46666666666667" y="35" as="sourcePoint"/>
                        <mxPoint x="87.46666666666667" y="20" as="targetPoint"/>
                    </mxGeometry>
                </mxCell>
                <mxCell id="275" value="" style="endArrow=none;html=1;fontSize=14;fillColor=default;" parent="263" edge="1">
                    <mxGeometry width="50" height="50" relative="1" as="geometry">
                        <mxPoint x="64" y="35" as="sourcePoint"/>
                        <mxPoint x="74.66666666666667" y="30" as="targetPoint"/>
                    </mxGeometry>
                </mxCell>
                <mxCell id="276" value="" style="endArrow=none;html=1;fontSize=14;fillColor=default;" parent="263" edge="1">
                    <mxGeometry width="50" height="50" relative="1" as="geometry">
                        <mxPoint x="64" y="35" as="sourcePoint"/>
                        <mxPoint x="53.333333333333336" y="30" as="targetPoint"/>
                    </mxGeometry>
                </mxCell>
                <mxCell id="277" value="" style="endArrow=none;html=1;fontSize=14;fillColor=default;" parent="263" edge="1">
                    <mxGeometry width="50" height="50" relative="1" as="geometry">
                        <mxPoint x="64" y="25" as="sourcePoint"/>
                        <mxPoint x="53.333333333333336" y="30" as="targetPoint"/>
                    </mxGeometry>
                </mxCell>
                <mxCell id="278" value="" style="endArrow=none;html=1;fontSize=14;fillColor=default;" parent="263" edge="1">
                    <mxGeometry width="50" height="50" relative="1" as="geometry">
                        <mxPoint x="74.66666666666667" y="30" as="sourcePoint"/>
                        <mxPoint x="64" y="25" as="targetPoint"/>
                    </mxGeometry>
                </mxCell>
                <mxCell id="279" value="" style="endArrow=none;html=1;fontSize=14;fillColor=default;" parent="263" edge="1">
                    <mxGeometry width="50" height="50" relative="1" as="geometry">
                        <mxPoint x="53.333333333333336" y="45" as="sourcePoint"/>
                        <mxPoint x="53.333333333333336" y="30" as="targetPoint"/>
                    </mxGeometry>
                </mxCell>
                <mxCell id="280" value="" style="endArrow=none;html=1;fontSize=14;fillColor=default;" parent="263" edge="1">
                    <mxGeometry width="50" height="50" relative="1" as="geometry">
                        <mxPoint x="74.66666666666667" y="45" as="sourcePoint"/>
                        <mxPoint x="74.66666666666667" y="30" as="targetPoint"/>
                    </mxGeometry>
                </mxCell>
                <mxCell id="281" value="" style="endArrow=none;html=1;fontSize=14;fillColor=default;" parent="263" edge="1">
                    <mxGeometry width="50" height="50" relative="1" as="geometry">
                        <mxPoint x="64" y="50" as="sourcePoint"/>
                        <mxPoint x="53.333333333333336" y="45" as="targetPoint"/>
                    </mxGeometry>
                </mxCell>
                <mxCell id="282" value="" style="endArrow=none;html=1;fontSize=14;fillColor=default;" parent="263" edge="1">
                    <mxGeometry width="50" height="50" relative="1" as="geometry">
                        <mxPoint x="64" y="50" as="sourcePoint"/>
                        <mxPoint x="74.66666666666667" y="45" as="targetPoint"/>
                    </mxGeometry>
                </mxCell>
                <mxCell id="283" value="" style="endArrow=none;html=1;fontSize=14;fillColor=default;" parent="263" edge="1">
                    <mxGeometry width="50" height="50" relative="1" as="geometry">
                        <mxPoint x="64" y="50" as="sourcePoint"/>
                        <mxPoint x="64" y="35" as="targetPoint"/>
                    </mxGeometry>
                </mxCell>
                <mxCell id="284" value="" style="endArrow=none;html=1;fontSize=14;fillColor=default;" parent="263" edge="1">
                    <mxGeometry width="50" height="50" relative="1" as="geometry">
                        <mxPoint x="87.46666666666667" y="51" as="sourcePoint"/>
                        <mxPoint x="98.13333333333333" y="46" as="targetPoint"/>
                    </mxGeometry>
                </mxCell>
                <mxCell id="285" value="" style="endArrow=none;html=1;fontSize=14;fillColor=default;" parent="263" edge="1">
                    <mxGeometry width="50" height="50" relative="1" as="geometry">
                        <mxPoint x="87.46666666666667" y="51" as="sourcePoint"/>
                        <mxPoint x="76.8" y="46" as="targetPoint"/>
                    </mxGeometry>
                </mxCell>
                <mxCell id="286" value="" style="endArrow=none;html=1;fontSize=14;fillColor=default;" parent="263" edge="1">
                    <mxGeometry width="50" height="50" relative="1" as="geometry">
                        <mxPoint x="87.46666666666667" y="41" as="sourcePoint"/>
                        <mxPoint x="76.8" y="46" as="targetPoint"/>
                    </mxGeometry>
                </mxCell>
                <mxCell id="287" value="" style="endArrow=none;html=1;fontSize=14;fillColor=default;" parent="263" edge="1">
                    <mxGeometry width="50" height="50" relative="1" as="geometry">
                        <mxPoint x="98.13333333333333" y="46" as="sourcePoint"/>
                        <mxPoint x="87.46666666666667" y="41" as="targetPoint"/>
                    </mxGeometry>
                </mxCell>
                <mxCell id="288" value="" style="endArrow=none;html=1;fontSize=14;fillColor=default;" parent="263" edge="1">
                    <mxGeometry width="50" height="50" relative="1" as="geometry">
                        <mxPoint x="76.8" y="61" as="sourcePoint"/>
                        <mxPoint x="76.8" y="46" as="targetPoint"/>
                    </mxGeometry>
                </mxCell>
                <mxCell id="289" value="" style="endArrow=none;html=1;fontSize=14;fillColor=default;" parent="263" edge="1">
                    <mxGeometry width="50" height="50" relative="1" as="geometry">
                        <mxPoint x="98.13333333333333" y="61" as="sourcePoint"/>
                        <mxPoint x="98.13333333333333" y="46" as="targetPoint"/>
                    </mxGeometry>
                </mxCell>
                <mxCell id="290" value="" style="endArrow=none;html=1;fontSize=14;fillColor=default;" parent="263" edge="1">
                    <mxGeometry width="50" height="50" relative="1" as="geometry">
                        <mxPoint x="87.46666666666667" y="66" as="sourcePoint"/>
                        <mxPoint x="76.8" y="61" as="targetPoint"/>
                    </mxGeometry>
                </mxCell>
                <mxCell id="291" value="" style="endArrow=none;html=1;fontSize=14;fillColor=default;" parent="263" edge="1">
                    <mxGeometry width="50" height="50" relative="1" as="geometry">
                        <mxPoint x="87.46666666666667" y="66" as="sourcePoint"/>
                        <mxPoint x="98.13333333333333" y="61" as="targetPoint"/>
                    </mxGeometry>
                </mxCell>
                <mxCell id="292" value="" style="endArrow=none;html=1;fontSize=14;fillColor=default;" parent="263" edge="1">
                    <mxGeometry width="50" height="50" relative="1" as="geometry">
                        <mxPoint x="87.46666666666667" y="66" as="sourcePoint"/>
                        <mxPoint x="87.46666666666667" y="51" as="targetPoint"/>
                    </mxGeometry>
                </mxCell>
                <mxCell id="293" style="edgeStyle=none;html=1;exitX=1;exitY=0.5;exitDx=0;exitDy=0;entryX=0;entryY=0.5;entryDx=0;entryDy=0;fontSize=14;startArrow=none;startFill=0;endArrow=classic;endFill=1;fillColor=default;" parent="1" source="39" target="264" edge="1">
                    <mxGeometry relative="1" as="geometry"/>
                </mxCell>
                <mxCell id="294" value="" style="group" parent="1" vertex="1" connectable="0">
                    <mxGeometry x="895" y="590" width="160" height="85.5" as="geometry"/>
                </mxCell>
                <mxCell id="295" value="" style="rounded=0;whiteSpace=wrap;html=1;fontSize=14;fillColor=none;" parent="294" vertex="1">
                    <mxGeometry width="160" height="85.5" as="geometry"/>
                </mxCell>
                <mxCell id="296" value="order service replicas" style="text;html=1;strokeColor=none;fillColor=none;align=center;verticalAlign=middle;whiteSpace=wrap;rounded=0;fontSize=14;container=0;" parent="294" vertex="1">
                    <mxGeometry y="66.25" width="160" height="13" as="geometry"/>
                </mxCell>
                <mxCell id="297" value="" style="endArrow=none;html=1;fontSize=14;fillColor=default;" parent="294" edge="1">
                    <mxGeometry width="50" height="50" relative="1" as="geometry">
                        <mxPoint x="87.46666666666667" y="20" as="sourcePoint"/>
                        <mxPoint x="98.13333333333333" y="15" as="targetPoint"/>
                    </mxGeometry>
                </mxCell>
                <mxCell id="298" value="" style="endArrow=none;html=1;fontSize=14;fillColor=default;" parent="294" edge="1">
                    <mxGeometry width="50" height="50" relative="1" as="geometry">
                        <mxPoint x="87.46666666666667" y="20" as="sourcePoint"/>
                        <mxPoint x="76.8" y="15" as="targetPoint"/>
                    </mxGeometry>
                </mxCell>
                <mxCell id="299" value="" style="endArrow=none;html=1;fontSize=14;fillColor=default;" parent="294" edge="1">
                    <mxGeometry width="50" height="50" relative="1" as="geometry">
                        <mxPoint x="87.46666666666667" y="10" as="sourcePoint"/>
                        <mxPoint x="76.8" y="15" as="targetPoint"/>
                    </mxGeometry>
                </mxCell>
                <mxCell id="300" value="" style="endArrow=none;html=1;fontSize=14;fillColor=default;" parent="294" edge="1">
                    <mxGeometry width="50" height="50" relative="1" as="geometry">
                        <mxPoint x="98.13333333333333" y="15" as="sourcePoint"/>
                        <mxPoint x="87.46666666666667" y="10" as="targetPoint"/>
                    </mxGeometry>
                </mxCell>
                <mxCell id="301" value="" style="endArrow=none;html=1;fontSize=14;fillColor=default;" parent="294" edge="1">
                    <mxGeometry width="50" height="50" relative="1" as="geometry">
                        <mxPoint x="76.8" y="30" as="sourcePoint"/>
                        <mxPoint x="76.8" y="15" as="targetPoint"/>
                    </mxGeometry>
                </mxCell>
                <mxCell id="302" value="" style="endArrow=none;html=1;fontSize=14;fillColor=default;" parent="294" edge="1">
                    <mxGeometry width="50" height="50" relative="1" as="geometry">
                        <mxPoint x="98.13333333333333" y="30" as="sourcePoint"/>
                        <mxPoint x="98.13333333333333" y="15" as="targetPoint"/>
                    </mxGeometry>
                </mxCell>
                <mxCell id="303" value="" style="endArrow=none;html=1;fontSize=14;fillColor=default;" parent="294" edge="1">
                    <mxGeometry width="50" height="50" relative="1" as="geometry">
                        <mxPoint x="87.46666666666667" y="35" as="sourcePoint"/>
                        <mxPoint x="76.8" y="30" as="targetPoint"/>
                    </mxGeometry>
                </mxCell>
                <mxCell id="304" value="" style="endArrow=none;html=1;fontSize=14;fillColor=default;" parent="294" edge="1">
                    <mxGeometry width="50" height="50" relative="1" as="geometry">
                        <mxPoint x="87.46666666666667" y="35" as="sourcePoint"/>
                        <mxPoint x="98.13333333333333" y="30" as="targetPoint"/>
                    </mxGeometry>
                </mxCell>
                <mxCell id="305" value="" style="endArrow=none;html=1;fontSize=14;fillColor=default;" parent="294" edge="1">
                    <mxGeometry width="50" height="50" relative="1" as="geometry">
                        <mxPoint x="87.46666666666667" y="35" as="sourcePoint"/>
                        <mxPoint x="87.46666666666667" y="20" as="targetPoint"/>
                    </mxGeometry>
                </mxCell>
                <mxCell id="306" value="" style="endArrow=none;html=1;fontSize=14;fillColor=default;" parent="294" edge="1">
                    <mxGeometry width="50" height="50" relative="1" as="geometry">
                        <mxPoint x="64" y="35" as="sourcePoint"/>
                        <mxPoint x="74.66666666666667" y="30" as="targetPoint"/>
                    </mxGeometry>
                </mxCell>
                <mxCell id="307" value="" style="endArrow=none;html=1;fontSize=14;fillColor=default;" parent="294" edge="1">
                    <mxGeometry width="50" height="50" relative="1" as="geometry">
                        <mxPoint x="64" y="35" as="sourcePoint"/>
                        <mxPoint x="53.333333333333336" y="30" as="targetPoint"/>
                    </mxGeometry>
                </mxCell>
                <mxCell id="308" value="" style="endArrow=none;html=1;fontSize=14;fillColor=default;" parent="294" edge="1">
                    <mxGeometry width="50" height="50" relative="1" as="geometry">
                        <mxPoint x="64" y="25" as="sourcePoint"/>
                        <mxPoint x="53.333333333333336" y="30" as="targetPoint"/>
                    </mxGeometry>
                </mxCell>
                <mxCell id="309" value="" style="endArrow=none;html=1;fontSize=14;fillColor=default;" parent="294" edge="1">
                    <mxGeometry width="50" height="50" relative="1" as="geometry">
                        <mxPoint x="74.66666666666667" y="30" as="sourcePoint"/>
                        <mxPoint x="64" y="25" as="targetPoint"/>
                    </mxGeometry>
                </mxCell>
                <mxCell id="310" value="" style="endArrow=none;html=1;fontSize=14;fillColor=default;" parent="294" edge="1">
                    <mxGeometry width="50" height="50" relative="1" as="geometry">
                        <mxPoint x="53.333333333333336" y="45" as="sourcePoint"/>
                        <mxPoint x="53.333333333333336" y="30" as="targetPoint"/>
                    </mxGeometry>
                </mxCell>
                <mxCell id="311" value="" style="endArrow=none;html=1;fontSize=14;fillColor=default;" parent="294" edge="1">
                    <mxGeometry width="50" height="50" relative="1" as="geometry">
                        <mxPoint x="74.66666666666667" y="45" as="sourcePoint"/>
                        <mxPoint x="74.66666666666667" y="30" as="targetPoint"/>
                    </mxGeometry>
                </mxCell>
                <mxCell id="312" value="" style="endArrow=none;html=1;fontSize=14;fillColor=default;" parent="294" edge="1">
                    <mxGeometry width="50" height="50" relative="1" as="geometry">
                        <mxPoint x="64" y="50" as="sourcePoint"/>
                        <mxPoint x="53.333333333333336" y="45" as="targetPoint"/>
                    </mxGeometry>
                </mxCell>
                <mxCell id="313" value="" style="endArrow=none;html=1;fontSize=14;fillColor=default;" parent="294" edge="1">
                    <mxGeometry width="50" height="50" relative="1" as="geometry">
                        <mxPoint x="64" y="50" as="sourcePoint"/>
                        <mxPoint x="74.66666666666667" y="45" as="targetPoint"/>
                    </mxGeometry>
                </mxCell>
                <mxCell id="314" value="" style="endArrow=none;html=1;fontSize=14;fillColor=default;" parent="294" edge="1">
                    <mxGeometry width="50" height="50" relative="1" as="geometry">
                        <mxPoint x="64" y="50" as="sourcePoint"/>
                        <mxPoint x="64" y="35" as="targetPoint"/>
                    </mxGeometry>
                </mxCell>
                <mxCell id="315" value="" style="endArrow=none;html=1;fontSize=14;fillColor=default;" parent="294" edge="1">
                    <mxGeometry width="50" height="50" relative="1" as="geometry">
                        <mxPoint x="87.46666666666667" y="51" as="sourcePoint"/>
                        <mxPoint x="98.13333333333333" y="46" as="targetPoint"/>
                    </mxGeometry>
                </mxCell>
                <mxCell id="316" value="" style="endArrow=none;html=1;fontSize=14;fillColor=default;" parent="294" edge="1">
                    <mxGeometry width="50" height="50" relative="1" as="geometry">
                        <mxPoint x="87.46666666666667" y="51" as="sourcePoint"/>
                        <mxPoint x="76.8" y="46" as="targetPoint"/>
                    </mxGeometry>
                </mxCell>
                <mxCell id="317" value="" style="endArrow=none;html=1;fontSize=14;fillColor=default;" parent="294" edge="1">
                    <mxGeometry width="50" height="50" relative="1" as="geometry">
                        <mxPoint x="87.46666666666667" y="41" as="sourcePoint"/>
                        <mxPoint x="76.8" y="46" as="targetPoint"/>
                    </mxGeometry>
                </mxCell>
                <mxCell id="318" value="" style="endArrow=none;html=1;fontSize=14;fillColor=default;" parent="294" edge="1">
                    <mxGeometry width="50" height="50" relative="1" as="geometry">
                        <mxPoint x="98.13333333333333" y="46" as="sourcePoint"/>
                        <mxPoint x="87.46666666666667" y="41" as="targetPoint"/>
                    </mxGeometry>
                </mxCell>
                <mxCell id="319" value="" style="endArrow=none;html=1;fontSize=14;fillColor=default;" parent="294" edge="1">
                    <mxGeometry width="50" height="50" relative="1" as="geometry">
                        <mxPoint x="76.8" y="61" as="sourcePoint"/>
                        <mxPoint x="76.8" y="46" as="targetPoint"/>
                    </mxGeometry>
                </mxCell>
                <mxCell id="320" value="" style="endArrow=none;html=1;fontSize=14;fillColor=default;" parent="294" edge="1">
                    <mxGeometry width="50" height="50" relative="1" as="geometry">
                        <mxPoint x="98.13333333333333" y="61" as="sourcePoint"/>
                        <mxPoint x="98.13333333333333" y="46" as="targetPoint"/>
                    </mxGeometry>
                </mxCell>
                <mxCell id="321" value="" style="endArrow=none;html=1;fontSize=14;fillColor=default;" parent="294" edge="1">
                    <mxGeometry width="50" height="50" relative="1" as="geometry">
                        <mxPoint x="87.46666666666667" y="66" as="sourcePoint"/>
                        <mxPoint x="76.8" y="61" as="targetPoint"/>
                    </mxGeometry>
                </mxCell>
                <mxCell id="322" value="" style="endArrow=none;html=1;fontSize=14;fillColor=default;" parent="294" edge="1">
                    <mxGeometry width="50" height="50" relative="1" as="geometry">
                        <mxPoint x="87.46666666666667" y="66" as="sourcePoint"/>
                        <mxPoint x="98.13333333333333" y="61" as="targetPoint"/>
                    </mxGeometry>
                </mxCell>
                <mxCell id="323" value="" style="endArrow=none;html=1;fontSize=14;fillColor=default;" parent="294" edge="1">
                    <mxGeometry width="50" height="50" relative="1" as="geometry">
                        <mxPoint x="87.46666666666667" y="66" as="sourcePoint"/>
                        <mxPoint x="87.46666666666667" y="51" as="targetPoint"/>
                    </mxGeometry>
                </mxCell>
                <mxCell id="325" style="edgeStyle=none;html=1;exitX=1;exitY=0.5;exitDx=0;exitDy=0;entryX=0;entryY=0.5;entryDx=0;entryDy=0;fontSize=14;startArrow=none;startFill=0;endArrow=classic;endFill=1;fillColor=default;" parent="1" source="49" target="295" edge="1">
                    <mxGeometry relative="1" as="geometry"/>
                </mxCell>
                <mxCell id="326" value="" style="group" parent="1" vertex="1" connectable="0">
                    <mxGeometry x="895" y="700" width="160" height="85.5" as="geometry"/>
                </mxCell>
                <mxCell id="327" value="" style="rounded=0;whiteSpace=wrap;html=1;fontSize=14;fillColor=none;" parent="326" vertex="1">
                    <mxGeometry width="160" height="85.5" as="geometry"/>
                </mxCell>
                <mxCell id="328" value="inventory service replicas" style="text;html=1;strokeColor=none;fillColor=none;align=center;verticalAlign=middle;whiteSpace=wrap;rounded=0;fontSize=14;container=0;" parent="326" vertex="1">
                    <mxGeometry y="66.25" width="160" height="13" as="geometry"/>
                </mxCell>
                <mxCell id="329" value="" style="endArrow=none;html=1;fontSize=14;fillColor=default;" parent="326" edge="1">
                    <mxGeometry width="50" height="50" relative="1" as="geometry">
                        <mxPoint x="82" y="20" as="sourcePoint"/>
                        <mxPoint x="92" y="15" as="targetPoint"/>
                    </mxGeometry>
                </mxCell>
                <mxCell id="330" value="" style="endArrow=none;html=1;fontSize=14;fillColor=default;" parent="326" edge="1">
                    <mxGeometry width="50" height="50" relative="1" as="geometry">
                        <mxPoint x="82" y="20" as="sourcePoint"/>
                        <mxPoint x="72" y="15" as="targetPoint"/>
                    </mxGeometry>
                </mxCell>
                <mxCell id="331" value="" style="endArrow=none;html=1;fontSize=14;fillColor=default;" parent="326" edge="1">
                    <mxGeometry width="50" height="50" relative="1" as="geometry">
                        <mxPoint x="82" y="10" as="sourcePoint"/>
                        <mxPoint x="72" y="15" as="targetPoint"/>
                    </mxGeometry>
                </mxCell>
                <mxCell id="332" value="" style="endArrow=none;html=1;fontSize=14;fillColor=default;" parent="326" edge="1">
                    <mxGeometry width="50" height="50" relative="1" as="geometry">
                        <mxPoint x="92" y="15" as="sourcePoint"/>
                        <mxPoint x="82" y="10" as="targetPoint"/>
                    </mxGeometry>
                </mxCell>
                <mxCell id="333" value="" style="endArrow=none;html=1;fontSize=14;fillColor=default;" parent="326" edge="1">
                    <mxGeometry width="50" height="50" relative="1" as="geometry">
                        <mxPoint x="72" y="30" as="sourcePoint"/>
                        <mxPoint x="72" y="15" as="targetPoint"/>
                    </mxGeometry>
                </mxCell>
                <mxCell id="334" value="" style="endArrow=none;html=1;fontSize=14;fillColor=default;" parent="326" edge="1">
                    <mxGeometry width="50" height="50" relative="1" as="geometry">
                        <mxPoint x="92" y="30" as="sourcePoint"/>
                        <mxPoint x="92" y="15" as="targetPoint"/>
                    </mxGeometry>
                </mxCell>
                <mxCell id="335" value="" style="endArrow=none;html=1;fontSize=14;fillColor=default;" parent="326" edge="1">
                    <mxGeometry width="50" height="50" relative="1" as="geometry">
                        <mxPoint x="82" y="35" as="sourcePoint"/>
                        <mxPoint x="72" y="30" as="targetPoint"/>
                    </mxGeometry>
                </mxCell>
                <mxCell id="336" value="" style="endArrow=none;html=1;fontSize=14;fillColor=default;" parent="326" edge="1">
                    <mxGeometry width="50" height="50" relative="1" as="geometry">
                        <mxPoint x="82" y="35" as="sourcePoint"/>
                        <mxPoint x="92" y="30" as="targetPoint"/>
                    </mxGeometry>
                </mxCell>
                <mxCell id="337" value="" style="endArrow=none;html=1;fontSize=14;fillColor=default;" parent="326" edge="1">
                    <mxGeometry width="50" height="50" relative="1" as="geometry">
                        <mxPoint x="82" y="35" as="sourcePoint"/>
                        <mxPoint x="82" y="20" as="targetPoint"/>
                    </mxGeometry>
                </mxCell>
                <mxCell id="338" value="" style="endArrow=none;html=1;fontSize=14;fillColor=default;" parent="326" edge="1">
                    <mxGeometry width="50" height="50" relative="1" as="geometry">
                        <mxPoint x="60" y="35" as="sourcePoint"/>
                        <mxPoint x="70" y="30" as="targetPoint"/>
                    </mxGeometry>
                </mxCell>
                <mxCell id="339" value="" style="endArrow=none;html=1;fontSize=14;fillColor=default;" parent="326" edge="1">
                    <mxGeometry width="50" height="50" relative="1" as="geometry">
                        <mxPoint x="60" y="35" as="sourcePoint"/>
                        <mxPoint x="50" y="30" as="targetPoint"/>
                    </mxGeometry>
                </mxCell>
                <mxCell id="340" value="" style="endArrow=none;html=1;fontSize=14;fillColor=default;" parent="326" edge="1">
                    <mxGeometry width="50" height="50" relative="1" as="geometry">
                        <mxPoint x="60" y="25" as="sourcePoint"/>
                        <mxPoint x="50" y="30" as="targetPoint"/>
                    </mxGeometry>
                </mxCell>
                <mxCell id="341" value="" style="endArrow=none;html=1;fontSize=14;fillColor=default;" parent="326" edge="1">
                    <mxGeometry width="50" height="50" relative="1" as="geometry">
                        <mxPoint x="70" y="30" as="sourcePoint"/>
                        <mxPoint x="60" y="25" as="targetPoint"/>
                    </mxGeometry>
                </mxCell>
                <mxCell id="342" value="" style="endArrow=none;html=1;fontSize=14;fillColor=default;" parent="326" edge="1">
                    <mxGeometry width="50" height="50" relative="1" as="geometry">
                        <mxPoint x="50" y="45" as="sourcePoint"/>
                        <mxPoint x="50" y="30" as="targetPoint"/>
                    </mxGeometry>
                </mxCell>
                <mxCell id="343" value="" style="endArrow=none;html=1;fontSize=14;fillColor=default;" parent="326" edge="1">
                    <mxGeometry width="50" height="50" relative="1" as="geometry">
                        <mxPoint x="70" y="45" as="sourcePoint"/>
                        <mxPoint x="70" y="30" as="targetPoint"/>
                    </mxGeometry>
                </mxCell>
                <mxCell id="344" value="" style="endArrow=none;html=1;fontSize=14;fillColor=default;" parent="326" edge="1">
                    <mxGeometry width="50" height="50" relative="1" as="geometry">
                        <mxPoint x="60" y="50" as="sourcePoint"/>
                        <mxPoint x="50" y="45" as="targetPoint"/>
                    </mxGeometry>
                </mxCell>
                <mxCell id="345" value="" style="endArrow=none;html=1;fontSize=14;fillColor=default;" parent="326" edge="1">
                    <mxGeometry width="50" height="50" relative="1" as="geometry">
                        <mxPoint x="60" y="50" as="sourcePoint"/>
                        <mxPoint x="70" y="45" as="targetPoint"/>
                    </mxGeometry>
                </mxCell>
                <mxCell id="346" value="" style="endArrow=none;html=1;fontSize=14;fillColor=default;" parent="326" edge="1">
                    <mxGeometry width="50" height="50" relative="1" as="geometry">
                        <mxPoint x="60" y="50" as="sourcePoint"/>
                        <mxPoint x="60" y="35" as="targetPoint"/>
                    </mxGeometry>
                </mxCell>
                <mxCell id="347" value="" style="endArrow=none;html=1;fontSize=14;fillColor=default;" parent="326" edge="1">
                    <mxGeometry width="50" height="50" relative="1" as="geometry">
                        <mxPoint x="82" y="51" as="sourcePoint"/>
                        <mxPoint x="92" y="46" as="targetPoint"/>
                    </mxGeometry>
                </mxCell>
                <mxCell id="348" value="" style="endArrow=none;html=1;fontSize=14;fillColor=default;" parent="326" edge="1">
                    <mxGeometry width="50" height="50" relative="1" as="geometry">
                        <mxPoint x="82" y="51" as="sourcePoint"/>
                        <mxPoint x="72" y="46" as="targetPoint"/>
                    </mxGeometry>
                </mxCell>
                <mxCell id="349" value="" style="endArrow=none;html=1;fontSize=14;fillColor=default;" parent="326" edge="1">
                    <mxGeometry width="50" height="50" relative="1" as="geometry">
                        <mxPoint x="82" y="41" as="sourcePoint"/>
                        <mxPoint x="72" y="46" as="targetPoint"/>
                    </mxGeometry>
                </mxCell>
                <mxCell id="350" value="" style="endArrow=none;html=1;fontSize=14;fillColor=default;" parent="326" edge="1">
                    <mxGeometry width="50" height="50" relative="1" as="geometry">
                        <mxPoint x="92" y="46" as="sourcePoint"/>
                        <mxPoint x="82" y="41" as="targetPoint"/>
                    </mxGeometry>
                </mxCell>
                <mxCell id="351" value="" style="endArrow=none;html=1;fontSize=14;fillColor=default;" parent="326" edge="1">
                    <mxGeometry width="50" height="50" relative="1" as="geometry">
                        <mxPoint x="72" y="61" as="sourcePoint"/>
                        <mxPoint x="72" y="46" as="targetPoint"/>
                    </mxGeometry>
                </mxCell>
                <mxCell id="352" value="" style="endArrow=none;html=1;fontSize=14;fillColor=default;" parent="326" edge="1">
                    <mxGeometry width="50" height="50" relative="1" as="geometry">
                        <mxPoint x="92" y="61" as="sourcePoint"/>
                        <mxPoint x="92" y="46" as="targetPoint"/>
                    </mxGeometry>
                </mxCell>
                <mxCell id="353" value="" style="endArrow=none;html=1;fontSize=14;fillColor=default;" parent="326" edge="1">
                    <mxGeometry width="50" height="50" relative="1" as="geometry">
                        <mxPoint x="82" y="66" as="sourcePoint"/>
                        <mxPoint x="72" y="61" as="targetPoint"/>
                    </mxGeometry>
                </mxCell>
                <mxCell id="354" value="" style="endArrow=none;html=1;fontSize=14;fillColor=default;" parent="326" edge="1">
                    <mxGeometry width="50" height="50" relative="1" as="geometry">
                        <mxPoint x="82" y="66" as="sourcePoint"/>
                        <mxPoint x="92" y="61" as="targetPoint"/>
                    </mxGeometry>
                </mxCell>
                <mxCell id="355" value="" style="endArrow=none;html=1;fontSize=14;fillColor=default;" parent="326" edge="1">
                    <mxGeometry width="50" height="50" relative="1" as="geometry">
                        <mxPoint x="82" y="66" as="sourcePoint"/>
                        <mxPoint x="82" y="51" as="targetPoint"/>
                    </mxGeometry>
                </mxCell>
                <mxCell id="356" style="edgeStyle=none;html=1;exitX=1;exitY=0.5;exitDx=0;exitDy=0;entryX=0;entryY=0.5;entryDx=0;entryDy=0;fontSize=14;startArrow=none;startFill=0;endArrow=classic;endFill=1;fillColor=default;" parent="1" source="58" target="327" edge="1">
                    <mxGeometry relative="1" as="geometry"/>
                </mxCell>
                <mxCell id="416" style="edgeStyle=none;html=1;exitX=1;exitY=0.75;exitDx=0;exitDy=0;endArrow=none;endFill=0;" edge="1" parent="1" source="295">
                    <mxGeometry relative="1" as="geometry">
                        <mxPoint x="1125" y="653.6842105263158" as="targetPoint"/>
                    </mxGeometry>
                </mxCell>
                <mxCell id="417" style="edgeStyle=none;html=1;exitX=1;exitY=0.25;exitDx=0;exitDy=0;endArrow=none;endFill=0;" edge="1" parent="1" source="265">
                    <mxGeometry relative="1" as="geometry">
                        <mxPoint x="1125" y="549.4736842105265" as="targetPoint"/>
                    </mxGeometry>
                </mxCell>
                <mxCell id="418" style="edgeStyle=none;html=1;exitX=1;exitY=0.75;exitDx=0;exitDy=0;endArrow=classic;endFill=1;entryX=0.5;entryY=1;entryDx=0;entryDy=0;strokeWidth=2;" edge="1" parent="1" source="233" target="427">
                    <mxGeometry relative="1" as="geometry">
                        <mxPoint x="1305" y="800" as="targetPoint"/>
                        <Array as="points">
                            <mxPoint x="1125" y="434"/>
                            <mxPoint x="1125" y="790"/>
                            <mxPoint x="1305" y="790"/>
                        </Array>
                    </mxGeometry>
                </mxCell>
                <mxCell id="420" style="edgeStyle=none;html=1;exitX=1;exitY=0.5;exitDx=0;exitDy=0;endArrow=none;endFill=0;" edge="1" parent="1" source="264">
                    <mxGeometry relative="1" as="geometry">
                        <mxPoint x="1175" y="523" as="targetPoint"/>
                    </mxGeometry>
                </mxCell>
                <mxCell id="421" style="edgeStyle=none;html=1;exitX=1;exitY=0.5;exitDx=0;exitDy=0;endArrow=none;endFill=0;" edge="1" parent="1" source="295">
                    <mxGeometry relative="1" as="geometry">
                        <mxPoint x="1175" y="633" as="targetPoint"/>
                    </mxGeometry>
                </mxCell>
                <mxCell id="422" style="edgeStyle=none;html=1;exitX=1;exitY=0.5;exitDx=0;exitDy=0;endArrow=classic;endFill=1;entryX=0.5;entryY=0;entryDx=0;entryDy=0;strokeWidth=2;" edge="1" parent="1" source="327" target="471">
                    <mxGeometry relative="1" as="geometry">
                        <mxPoint x="1365" y="340" as="targetPoint"/>
                        <Array as="points">
                            <mxPoint x="1175" y="743"/>
                            <mxPoint x="1175" y="360"/>
                            <mxPoint x="1305" y="360"/>
                        </Array>
                    </mxGeometry>
                </mxCell>
                <mxCell id="428" value="" style="group;fillColor=#f5f5f5;fontColor=#333333;strokeColor=#666666;" vertex="1" connectable="0" parent="1">
                    <mxGeometry x="1205" y="550" width="200" height="170" as="geometry"/>
                </mxCell>
                <mxCell id="363" value="" style="shape=cylinder3;whiteSpace=wrap;html=1;boundedLbl=1;backgroundOutline=1;size=5.619235334725261;fontSize=14;fillColor=default;rotation=0;" vertex="1" parent="428">
                    <mxGeometry x="60" y="59.27906976744191" width="60" height="56.86046511627907" as="geometry"/>
                </mxCell>
                <mxCell id="367" value="" style="shape=cylinder3;whiteSpace=wrap;html=1;boundedLbl=1;backgroundOutline=1;size=5.619235334725261;fontSize=14;fillColor=default;" vertex="1" parent="428">
                    <mxGeometry x="100" y="87.70930232558135" width="60" height="56.86046511627907" as="geometry"/>
                </mxCell>
                <mxCell id="366" value="" style="shape=cylinder3;whiteSpace=wrap;html=1;boundedLbl=1;backgroundOutline=1;size=5.619235334725261;fontSize=14;fillColor=default;" vertex="1" parent="428">
                    <mxGeometry x="44" y="97.18604651162786" width="60" height="56.86046511627907" as="geometry"/>
                </mxCell>
                <mxCell id="368" value="database cluster" style="text;html=1;strokeColor=none;fillColor=none;align=center;verticalAlign=middle;whiteSpace=wrap;rounded=0;rotation=0;" vertex="1" parent="428">
                    <mxGeometry y="10" width="200" height="18.953488372093023" as="geometry"/>
                </mxCell>
                <mxCell id="427" value="" style="rounded=0;whiteSpace=wrap;html=1;fillColor=none;" vertex="1" parent="428">
                    <mxGeometry width="200" height="170" as="geometry"/>
                </mxCell>
                <mxCell id="429" style="edgeStyle=none;html=1;exitX=1;exitY=0.75;exitDx=0;exitDy=0;endArrow=none;endFill=0;" edge="1" parent="1" source="327">
                    <mxGeometry relative="1" as="geometry">
                        <mxPoint x="1125" y="763.8620689655172" as="targetPoint"/>
                    </mxGeometry>
                </mxCell>
                <mxCell id="430" style="edgeStyle=none;html=1;exitX=1;exitY=0.5;exitDx=0;exitDy=0;endArrow=none;endFill=0;" edge="1" parent="1" source="233">
                    <mxGeometry relative="1" as="geometry">
                        <mxPoint x="1175" y="412.8275862068966" as="targetPoint"/>
                    </mxGeometry>
                </mxCell>
                <mxCell id="473" value="" style="group" vertex="1" connectable="0" parent="1">
                    <mxGeometry x="1230" y="390" width="150" height="120" as="geometry"/>
                </mxCell>
                <mxCell id="471" value="" style="rounded=0;whiteSpace=wrap;html=1;fillColor=#f5f5f5;fontColor=#333333;strokeColor=#666666;" vertex="1" parent="473">
                    <mxGeometry width="150" height="120" as="geometry"/>
                </mxCell>
                <mxCell id="431" value="" style="group;fillColor=default;" vertex="1" connectable="0" parent="473">
                    <mxGeometry x="61" y="20" width="59" height="10.5" as="geometry"/>
                </mxCell>
                <mxCell id="432" value="" style="rounded=0;whiteSpace=wrap;html=1;fillColor=none;" vertex="1" parent="431">
                    <mxGeometry width="59" height="10.5" as="geometry"/>
                </mxCell>
                <mxCell id="433" value="" style="endArrow=none;html=1;rounded=0;entryX=0.25;entryY=0;entryDx=0;entryDy=0;exitX=0.25;exitY=1;exitDx=0;exitDy=0;" edge="1" parent="431" source="432" target="432">
                    <mxGeometry width="50" height="50" relative="1" as="geometry">
                        <mxPoint x="36.875" y="31.5" as="sourcePoint"/>
                        <mxPoint x="55.3125" y="18.375" as="targetPoint"/>
                    </mxGeometry>
                </mxCell>
                <mxCell id="434" value="" style="endArrow=none;html=1;rounded=0;entryX=0.5;entryY=0;entryDx=0;entryDy=0;exitX=0.5;exitY=1;exitDx=0;exitDy=0;" edge="1" parent="431" source="432" target="432">
                    <mxGeometry width="50" height="50" relative="1" as="geometry">
                        <mxPoint x="40.5625" y="34.125" as="sourcePoint"/>
                        <mxPoint x="59" y="21" as="targetPoint"/>
                    </mxGeometry>
                </mxCell>
                <mxCell id="435" value="" style="endArrow=none;html=1;rounded=0;entryX=0.75;entryY=0;entryDx=0;entryDy=0;exitX=0.75;exitY=1;exitDx=0;exitDy=0;" edge="1" parent="431" source="432" target="432">
                    <mxGeometry width="50" height="50" relative="1" as="geometry">
                        <mxPoint x="44.25" y="36.75" as="sourcePoint"/>
                        <mxPoint x="62.6875" y="23.625" as="targetPoint"/>
                    </mxGeometry>
                </mxCell>
                <mxCell id="458" style="edgeStyle=none;html=1;exitX=1;exitY=0;exitDx=0;exitDy=0;entryX=0;entryY=0.5;entryDx=0;entryDy=0;endArrow=classic;endFill=1;" edge="1" parent="473" source="452" target="432">
                    <mxGeometry relative="1" as="geometry">
                        <Array as="points">
                            <mxPoint x="44" y="26"/>
                        </Array>
                    </mxGeometry>
                </mxCell>
                <mxCell id="452" value="" style="ellipse;whiteSpace=wrap;html=1;aspect=fixed;fillColor=default;" vertex="1" parent="473">
                    <mxGeometry x="10" y="28.75" width="33" height="33" as="geometry"/>
                </mxCell>
                <mxCell id="453" value="" style="endArrow=classic;html=1;rounded=0;entryX=1;entryY=0;entryDx=0;entryDy=0;exitX=0;exitY=1;exitDx=0;exitDy=0;" edge="1" parent="473" source="452" target="452">
                    <mxGeometry width="50" height="50" relative="1" as="geometry">
                        <mxPoint x="-44.5" y="192.5" as="sourcePoint"/>
                        <mxPoint x="-7" y="145.625" as="targetPoint"/>
                    </mxGeometry>
                </mxCell>
                <mxCell id="454" value="" style="endArrow=classic;html=1;rounded=0;entryX=1;entryY=1;entryDx=0;entryDy=0;exitX=0;exitY=0;exitDx=0;exitDy=0;" edge="1" parent="473" source="452" target="452">
                    <mxGeometry width="50" height="50" relative="1" as="geometry">
                        <mxPoint x="-37" y="201.875" as="sourcePoint"/>
                        <mxPoint x="0.5" y="155" as="targetPoint"/>
                    </mxGeometry>
                </mxCell>
                <mxCell id="461" value="" style="group;fillColor=default;" vertex="1" connectable="0" parent="473">
                    <mxGeometry x="71" y="40" width="59" height="10.5" as="geometry"/>
                </mxCell>
                <mxCell id="462" value="" style="rounded=0;whiteSpace=wrap;html=1;fillColor=none;" vertex="1" parent="461">
                    <mxGeometry width="59" height="10.5" as="geometry"/>
                </mxCell>
                <mxCell id="463" value="" style="endArrow=none;html=1;rounded=0;entryX=0.25;entryY=0;entryDx=0;entryDy=0;exitX=0.25;exitY=1;exitDx=0;exitDy=0;" edge="1" parent="461" source="462" target="462">
                    <mxGeometry width="50" height="50" relative="1" as="geometry">
                        <mxPoint x="36.875" y="31.5" as="sourcePoint"/>
                        <mxPoint x="55.3125" y="18.375" as="targetPoint"/>
                    </mxGeometry>
                </mxCell>
                <mxCell id="464" value="" style="endArrow=none;html=1;rounded=0;entryX=0.5;entryY=0;entryDx=0;entryDy=0;exitX=0.5;exitY=1;exitDx=0;exitDy=0;" edge="1" parent="461" source="462" target="462">
                    <mxGeometry width="50" height="50" relative="1" as="geometry">
                        <mxPoint x="40.5625" y="34.125" as="sourcePoint"/>
                        <mxPoint x="59" y="21" as="targetPoint"/>
                    </mxGeometry>
                </mxCell>
                <mxCell id="465" value="" style="endArrow=none;html=1;rounded=0;entryX=0.75;entryY=0;entryDx=0;entryDy=0;exitX=0.75;exitY=1;exitDx=0;exitDy=0;" edge="1" parent="461" source="462" target="462">
                    <mxGeometry width="50" height="50" relative="1" as="geometry">
                        <mxPoint x="44.25" y="36.75" as="sourcePoint"/>
                        <mxPoint x="62.6875" y="23.625" as="targetPoint"/>
                    </mxGeometry>
                </mxCell>
                <mxCell id="459" style="edgeStyle=none;html=1;exitX=1;exitY=0.5;exitDx=0;exitDy=0;entryX=0;entryY=0.5;entryDx=0;entryDy=0;endArrow=classic;endFill=1;" edge="1" parent="473" source="452" target="462">
                    <mxGeometry relative="1" as="geometry">
                        <mxPoint x="69" y="43" as="targetPoint"/>
                    </mxGeometry>
                </mxCell>
                <mxCell id="466" value="" style="group;fillColor=default;" vertex="1" connectable="0" parent="473">
                    <mxGeometry x="81" y="60" width="59" height="10.5" as="geometry"/>
                </mxCell>
                <mxCell id="467" value="" style="rounded=0;whiteSpace=wrap;html=1;fillColor=none;" vertex="1" parent="466">
                    <mxGeometry width="59" height="10.5" as="geometry"/>
                </mxCell>
                <mxCell id="468" value="" style="endArrow=none;html=1;rounded=0;entryX=0.25;entryY=0;entryDx=0;entryDy=0;exitX=0.25;exitY=1;exitDx=0;exitDy=0;" edge="1" parent="466" source="467" target="467">
                    <mxGeometry width="50" height="50" relative="1" as="geometry">
                        <mxPoint x="36.875" y="31.5" as="sourcePoint"/>
                        <mxPoint x="55.3125" y="18.375" as="targetPoint"/>
                    </mxGeometry>
                </mxCell>
                <mxCell id="469" value="" style="endArrow=none;html=1;rounded=0;entryX=0.5;entryY=0;entryDx=0;entryDy=0;exitX=0.5;exitY=1;exitDx=0;exitDy=0;" edge="1" parent="466" source="467" target="467">
                    <mxGeometry width="50" height="50" relative="1" as="geometry">
                        <mxPoint x="40.5625" y="34.125" as="sourcePoint"/>
                        <mxPoint x="59" y="21" as="targetPoint"/>
                    </mxGeometry>
                </mxCell>
                <mxCell id="470" value="" style="endArrow=none;html=1;rounded=0;entryX=0.75;entryY=0;entryDx=0;entryDy=0;exitX=0.75;exitY=1;exitDx=0;exitDy=0;" edge="1" parent="466" source="467" target="467">
                    <mxGeometry width="50" height="50" relative="1" as="geometry">
                        <mxPoint x="44.25" y="36.75" as="sourcePoint"/>
                        <mxPoint x="62.6875" y="23.625" as="targetPoint"/>
                    </mxGeometry>
                </mxCell>
                <mxCell id="472" value="message queue cluster" style="text;html=1;strokeColor=none;fillColor=none;align=center;verticalAlign=middle;whiteSpace=wrap;rounded=0;" vertex="1" parent="473">
                    <mxGeometry x="22.5" y="80" width="105" height="30" as="geometry"/>
                </mxCell>
                <mxCell id="460" style="edgeStyle=none;html=1;exitX=1;exitY=1;exitDx=0;exitDy=0;entryX=0;entryY=0.5;entryDx=0;entryDy=0;endArrow=classic;endFill=1;" edge="1" parent="473" source="452" target="467">
                    <mxGeometry relative="1" as="geometry">
                        <mxPoint x="78" y="72" as="targetPoint"/>
                        <Array as="points">
                            <mxPoint x="45" y="65"/>
                        </Array>
                    </mxGeometry>
                </mxCell>
                <mxCell id="474" value="" style="endArrow=none;html=1;strokeWidth=2;" edge="1" parent="1">
                    <mxGeometry width="50" height="50" relative="1" as="geometry">
                        <mxPoint x="527" y="860" as="sourcePoint"/>
                        <mxPoint x="527" y="300" as="targetPoint"/>
                    </mxGeometry>
                </mxCell>
                <mxCell id="475" value="Internal Zone" style="edgeLabel;html=1;align=center;verticalAlign=top;resizable=0;points=[];horizontal=0;fontSize=18;" vertex="1" connectable="0" parent="474">
                    <mxGeometry x="0.3936" y="4" relative="1" as="geometry">
                        <mxPoint x="-17" y="15" as="offset"/>
                    </mxGeometry>
                </mxCell>
            </root>
        </mxGraphModel>
    </diagram>
</mxfile>